<svg id="Layer_1" data-name="Layer 1" xmlns="http://www.w3.org/2000/svg" viewBox="0 0 1069.28 1080"><defs><style>.cls-1{fill:#f7e55b;}.cls-2,.cls-3{fill:none;stroke-miterlimit:10;}.cls-2{stroke:#000;}.cls-3{stroke:#fff;}</style></defs><title>Artboard 1</title><path class="cls-1" d="M424.1,595.17c-4.75-7.57-14.11-4.89-26.39,4.34-6.08-6.77-12-9.82-17.78-7.9-6.41,2.13-9.38,9.5-6.84,15.76,3.32,8.17,10.19,13.59,19.28,17.31a5.47,5.47,0,0,0,3.54.27c11.22-3,20.39-7,26.12-12.89A13.85,13.85,0,0,0,424.1,595.17Zm103.38-51c.1-7.58-7.86-9.15-12.8-9.21-10.78-.15-32.68-2.54-32,10.21.62,12,7.78,14.08,20.18,13.06a67.12,67.12,0,0,1,7.9-.19C530.18,558.58,527.46,545.48,527.48,544.21Zm0,0c.1-7.58-7.86-9.15-12.8-9.21-10.78-.15-32.68-2.54-32,10.21.62,12,7.78,14.08,20.18,13.06a67.12,67.12,0,0,1,7.9-.19C530.18,558.58,527.46,545.48,527.48,544.21Zm0,0c.1-7.58-7.86-9.15-12.8-9.21-10.78-.15-32.68-2.54-32,10.21.62,12,7.78,14.08,20.18,13.06a67.12,67.12,0,0,1,7.9-.19C530.18,558.58,527.46,545.48,527.48,544.21Zm0,0c.1-7.58-7.86-9.15-12.8-9.21-10.78-.15-32.68-2.54-32,10.21.62,12,7.78,14.08,20.18,13.06a67.12,67.12,0,0,1,7.9-.19C530.18,558.58,527.46,545.48,527.48,544.21Zm0,0c.1-7.58-7.86-9.15-12.8-9.21-10.78-.15-32.68-2.54-32,10.21.62,12,7.78,14.08,20.18,13.06a67.12,67.12,0,0,1,7.9-.19C530.18,558.58,527.46,545.48,527.48,544.21Zm0,0c.1-7.58-7.86-9.15-12.8-9.21-10.78-.15-32.68-2.54-32,10.21.62,12,7.78,14.08,20.18,13.06a67.12,67.12,0,0,1,7.9-.19C530.18,558.58,527.46,545.48,527.48,544.21Zm0,0c.1-7.58-7.86-9.15-12.8-9.21-10.78-.15-32.68-2.54-32,10.21.62,12,7.78,14.08,20.18,13.06a67.12,67.12,0,0,1,7.9-.19C530.18,558.58,527.46,545.48,527.48,544.21Zm0,0c.1-7.58-7.86-9.15-12.8-9.21-10.78-.15-32.68-2.54-32,10.21.62,12,7.78,14.08,20.18,13.06a67.12,67.12,0,0,1,7.9-.19C530.18,558.58,527.46,545.48,527.48,544.21ZM516.26,469.6A77.77,77.77,0,1,0,594,547.36,77.77,77.77,0,0,0,516.26,469.6Zm-.84,132.75a55.24,55.24,0,1,1,55.24-55.24A55.22,55.22,0,0,1,515.42,602.35ZM514.68,535c-10.78-.15-32.68-2.54-32,10.21.62,12,7.78,14.08,20.18,13.06a67.12,67.12,0,0,1,7.9-.19c19.47.5,16.75-12.6,16.77-13.87C527.58,536.63,519.62,535.06,514.68,535Zm12.8,9.21c.1-7.58-7.86-9.15-12.8-9.21-10.78-.15-32.68-2.54-32,10.21.62,12,7.78,14.08,20.18,13.06a67.12,67.12,0,0,1,7.9-.19C530.18,558.58,527.46,545.48,527.48,544.21Zm0,0c.1-7.58-7.86-9.15-12.8-9.21-10.78-.15-32.68-2.54-32,10.21.62,12,7.78,14.08,20.18,13.06a67.12,67.12,0,0,1,7.9-.19C530.18,558.58,527.46,545.48,527.48,544.21Zm0,0c.1-7.58-7.86-9.15-12.8-9.21-10.78-.15-32.68-2.54-32,10.21.62,12,7.78,14.08,20.18,13.06a67.12,67.12,0,0,1,7.9-.19C530.18,558.58,527.46,545.48,527.48,544.21Zm0,0c.1-7.58-7.86-9.15-12.8-9.21-10.78-.15-32.68-2.54-32,10.21.62,12,7.78,14.08,20.18,13.06a67.12,67.12,0,0,1,7.9-.19C530.18,558.58,527.46,545.48,527.48,544.21Zm0,0c.1-7.58-7.86-9.15-12.8-9.21-10.78-.15-32.68-2.54-32,10.21.62,12,7.78,14.08,20.18,13.06a67.12,67.12,0,0,1,7.9-.19C530.18,558.58,527.46,545.48,527.48,544.21Zm0,0c.1-7.58-7.86-9.15-12.8-9.21-10.78-.15-32.68-2.54-32,10.21.62,12,7.78,14.08,20.18,13.06a67.12,67.12,0,0,1,7.9-.19C530.18,558.58,527.46,545.48,527.48,544.21Zm0,0c.1-7.58-7.86-9.15-12.8-9.21-10.78-.15-32.68-2.54-32,10.21.62,12,7.78,14.08,20.18,13.06a67.12,67.12,0,0,1,7.9-.19C530.18,558.58,527.46,545.48,527.48,544.21Zm0,0c.1-7.58-7.86-9.15-12.8-9.21-10.78-.15-32.68-2.54-32,10.21.62,12,7.78,14.08,20.18,13.06a67.12,67.12,0,0,1,7.9-.19C530.18,558.58,527.46,545.48,527.48,544.21Zm0,0c.1-7.58-7.86-9.15-12.8-9.21-10.78-.15-32.68-2.54-32,10.21.62,12,7.78,14.08,20.18,13.06a67.12,67.12,0,0,1,7.9-.19C530.18,558.58,527.46,545.48,527.48,544.21Zm0,0c.1-7.58-7.86-9.15-12.8-9.21-10.78-.15-32.68-2.54-32,10.21.62,12,7.78,14.08,20.18,13.06a67.12,67.12,0,0,1,7.9-.19C530.18,558.58,527.46,545.48,527.48,544.21Zm0,0c.1-7.58-7.86-9.15-12.8-9.21-10.78-.15-32.68-2.54-32,10.21.62,12,7.78,14.08,20.18,13.06a67.12,67.12,0,0,1,7.9-.19C530.18,558.58,527.46,545.48,527.48,544.21Zm0,0c.1-7.58-7.86-9.15-12.8-9.21-10.78-.15-32.68-2.54-32,10.21.62,12,7.78,14.08,20.18,13.06a67.12,67.12,0,0,1,7.9-.19C530.18,558.58,527.46,545.48,527.48,544.21Zm0,0c.1-7.58-7.86-9.15-12.8-9.21-10.78-.15-32.68-2.54-32,10.21.62,12,7.78,14.08,20.18,13.06a67.12,67.12,0,0,1,7.9-.19C530.18,558.58,527.46,545.48,527.48,544.21Zm0,0c.1-7.58-7.86-9.15-12.8-9.21-10.78-.15-32.68-2.54-32,10.21.62,12,7.78,14.08,20.18,13.06a67.12,67.12,0,0,1,7.9-.19C530.18,558.58,527.46,545.48,527.48,544.21ZM516.26,469.6A77.77,77.77,0,1,0,594,547.36,77.77,77.77,0,0,0,516.26,469.6Zm-.84,132.75a55.24,55.24,0,1,1,55.24-55.24A55.22,55.22,0,0,1,515.42,602.35ZM514.68,535c-10.78-.15-32.68-2.54-32,10.21.62,12,7.78,14.08,20.18,13.06a67.12,67.12,0,0,1,7.9-.19c19.47.5,16.75-12.6,16.77-13.87C527.58,536.63,519.62,535.06,514.68,535Zm12.8,9.21c.1-7.58-7.86-9.15-12.8-9.21-10.78-.15-32.68-2.54-32,10.21.62,12,7.78,14.08,20.18,13.06a67.12,67.12,0,0,1,7.9-.19C530.18,558.58,527.46,545.48,527.48,544.21Zm0,0c.1-7.58-7.86-9.15-12.8-9.21-10.78-.15-32.68-2.54-32,10.21.62,12,7.78,14.08,20.18,13.06a67.12,67.12,0,0,1,7.9-.19C530.18,558.58,527.46,545.48,527.48,544.21Zm0,0c.1-7.58-7.86-9.15-12.8-9.21-10.78-.15-32.68-2.54-32,10.21.62,12,7.78,14.08,20.18,13.06a67.12,67.12,0,0,1,7.9-.19C530.18,558.58,527.46,545.48,527.48,544.21Zm0,0c.1-7.58-7.86-9.15-12.8-9.21-10.78-.15-32.68-2.54-32,10.21.62,12,7.78,14.08,20.18,13.06a67.12,67.12,0,0,1,7.9-.19C530.18,558.58,527.46,545.48,527.48,544.21Zm0,0c.1-7.58-7.86-9.15-12.8-9.21-10.78-.15-32.68-2.54-32,10.21.62,12,7.78,14.08,20.18,13.06a67.12,67.12,0,0,1,7.9-.19C530.18,558.58,527.46,545.48,527.48,544.21Zm0,0c.1-7.58-7.86-9.15-12.8-9.21-10.78-.15-32.68-2.54-32,10.21.62,12,7.78,14.08,20.18,13.06a67.12,67.12,0,0,1,7.9-.19C530.18,558.58,527.46,545.48,527.48,544.21Zm-103.38,51c-4.75-7.57-14.11-4.89-26.39,4.34-6.08-6.77-12-9.82-17.78-7.9-6.41,2.13-9.38,9.5-6.84,15.76,3.32,8.17,10.19,13.59,19.28,17.31a5.47,5.47,0,0,0,3.54.27c11.22-3,20.39-7,26.12-12.89A13.85,13.85,0,0,0,424.1,595.17Zm-63.39-60.85c.1-7.57-7.86-9.15-12.77-9.21-10.81-.14-32.71-2.54-32.08,10.21.64,12,7.78,14.09,20.19,13.06a69.45,69.45,0,0,1,7.9-.18C363.43,548.69,360.69,535.59,360.71,534.32Zm63.39,60.85c-4.75-7.57-14.11-4.89-26.39,4.34-6.08-6.77-12-9.82-17.78-7.9-6.41,2.13-9.38,9.5-6.84,15.76,3.32,8.17,10.19,13.59,19.28,17.31a5.47,5.47,0,0,0,3.54.27c11.22-3,20.39-7,26.12-12.89A13.85,13.85,0,0,0,424.1,595.17Zm103.38-51c.1-7.58-7.86-9.15-12.8-9.21-10.78-.15-32.68-2.54-32,10.21.62,12,7.78,14.08,20.18,13.06a67.12,67.12,0,0,1,7.9-.19C530.18,558.58,527.46,545.48,527.48,544.21Zm0,0c.1-7.58-7.86-9.15-12.8-9.21-10.78-.15-32.68-2.54-32,10.21.62,12,7.78,14.08,20.18,13.06a67.12,67.12,0,0,1,7.9-.19C530.18,558.58,527.46,545.48,527.48,544.21Zm0,0c.1-7.58-7.86-9.15-12.8-9.21-10.78-.15-32.68-2.54-32,10.21.62,12,7.78,14.08,20.18,13.06a67.12,67.12,0,0,1,7.9-.19C530.18,558.58,527.46,545.48,527.48,544.21Zm0,0c.1-7.58-7.86-9.15-12.8-9.21-10.78-.15-32.68-2.54-32,10.21.62,12,7.78,14.08,20.18,13.06a67.12,67.12,0,0,1,7.9-.19C530.18,558.58,527.46,545.48,527.48,544.21Zm0,0c.1-7.58-7.86-9.15-12.8-9.21-10.78-.15-32.68-2.54-32,10.21.62,12,7.78,14.08,20.18,13.06a67.12,67.12,0,0,1,7.9-.19C530.18,558.58,527.46,545.48,527.48,544.21Zm0,0c.1-7.58-7.86-9.15-12.8-9.21-10.78-.15-32.68-2.54-32,10.21.62,12,7.78,14.08,20.18,13.06a67.12,67.12,0,0,1,7.9-.19C530.18,558.58,527.46,545.48,527.48,544.21Zm0,0c.1-7.58-7.86-9.15-12.8-9.21-10.78-.15-32.68-2.54-32,10.21.62,12,7.78,14.08,20.18,13.06a67.12,67.12,0,0,1,7.9-.19C530.18,558.58,527.46,545.48,527.48,544.21Zm0,0c.1-7.58-7.86-9.15-12.8-9.21-10.78-.15-32.68-2.54-32,10.21.62,12,7.78,14.08,20.18,13.06a67.12,67.12,0,0,1,7.9-.19C530.18,558.58,527.46,545.48,527.48,544.21ZM516.26,469.6A77.77,77.77,0,1,0,594,547.36,77.77,77.77,0,0,0,516.26,469.6Zm-.84,132.75a55.24,55.24,0,1,1,55.24-55.24A55.22,55.22,0,0,1,515.42,602.35ZM514.68,535c-10.78-.15-32.68-2.54-32,10.21.62,12,7.78,14.08,20.18,13.06a67.12,67.12,0,0,1,7.9-.19c19.47.5,16.75-12.6,16.77-13.87C527.58,536.63,519.62,535.06,514.68,535Zm12.8,9.21c.1-7.58-7.86-9.15-12.8-9.21-10.78-.15-32.68-2.54-32,10.21.62,12,7.78,14.08,20.18,13.06a67.12,67.12,0,0,1,7.9-.19C530.18,558.58,527.46,545.48,527.48,544.21Zm0,0c.1-7.58-7.86-9.15-12.8-9.21-10.78-.15-32.68-2.54-32,10.21.62,12,7.78,14.08,20.18,13.06a67.12,67.12,0,0,1,7.9-.19C530.18,558.58,527.46,545.48,527.48,544.21Zm0,0c.1-7.58-7.86-9.15-12.8-9.21-10.78-.15-32.68-2.54-32,10.21.62,12,7.78,14.08,20.18,13.06a67.12,67.12,0,0,1,7.9-.19C530.18,558.58,527.46,545.48,527.48,544.21Zm0,0c.1-7.58-7.86-9.15-12.8-9.21-10.78-.15-32.68-2.54-32,10.21.62,12,7.78,14.08,20.18,13.06a67.12,67.12,0,0,1,7.9-.19C530.18,558.58,527.46,545.48,527.48,544.21Zm0,0c.1-7.58-7.86-9.15-12.8-9.21-10.78-.15-32.68-2.54-32,10.21.62,12,7.78,14.08,20.18,13.06a67.12,67.12,0,0,1,7.9-.19C530.18,558.58,527.46,545.48,527.48,544.21Zm0,0c.1-7.58-7.86-9.15-12.8-9.21-10.78-.15-32.68-2.54-32,10.21.62,12,7.78,14.08,20.18,13.06a67.12,67.12,0,0,1,7.9-.19C530.18,558.58,527.46,545.48,527.48,544.21Zm0,0c.1-7.58-7.86-9.15-12.8-9.21-10.78-.15-32.68-2.54-32,10.21.62,12,7.78,14.08,20.18,13.06a67.12,67.12,0,0,1,7.9-.19C530.18,558.58,527.46,545.48,527.48,544.21Zm0,0c.1-7.58-7.86-9.15-12.8-9.21-10.78-.15-32.68-2.54-32,10.21.62,12,7.78,14.08,20.18,13.06a67.12,67.12,0,0,1,7.9-.19C530.18,558.58,527.46,545.48,527.48,544.21Zm0,0c.1-7.58-7.86-9.15-12.8-9.21-10.78-.15-32.68-2.54-32,10.21.62,12,7.78,14.08,20.18,13.06a67.12,67.12,0,0,1,7.9-.19C530.18,558.58,527.46,545.48,527.48,544.21Zm0,0c.1-7.58-7.86-9.15-12.8-9.21-10.78-.15-32.68-2.54-32,10.21.62,12,7.78,14.08,20.18,13.06a67.12,67.12,0,0,1,7.9-.19C530.18,558.58,527.46,545.48,527.48,544.21Zm0,0c.1-7.58-7.86-9.15-12.8-9.21-10.78-.15-32.68-2.54-32,10.21.62,12,7.78,14.08,20.18,13.06a67.12,67.12,0,0,1,7.9-.19C530.18,558.58,527.46,545.48,527.48,544.21Zm0,0c.1-7.58-7.86-9.15-12.8-9.21-10.78-.15-32.68-2.54-32,10.21.62,12,7.78,14.08,20.18,13.06a67.12,67.12,0,0,1,7.9-.19C530.18,558.58,527.46,545.48,527.48,544.21ZM516.26,469.6A77.77,77.77,0,1,0,594,547.36,77.77,77.77,0,0,0,516.26,469.6Zm-.84,132.75a55.24,55.24,0,1,1,55.24-55.24A55.22,55.22,0,0,1,515.42,602.35ZM514.68,535c-10.78-.15-32.68-2.54-32,10.21.62,12,7.78,14.08,20.18,13.06a67.12,67.12,0,0,1,7.9-.19c19.47.5,16.75-12.6,16.77-13.87C527.58,536.63,519.62,535.06,514.68,535Zm12.8,9.21c.1-7.58-7.86-9.15-12.8-9.21-10.78-.15-32.68-2.54-32,10.21.62,12,7.78,14.08,20.18,13.06a67.12,67.12,0,0,1,7.9-.19C530.18,558.58,527.46,545.48,527.48,544.21Zm0,0c.1-7.58-7.86-9.15-12.8-9.21-10.78-.15-32.68-2.54-32,10.21.62,12,7.78,14.08,20.18,13.06a67.12,67.12,0,0,1,7.9-.19C530.18,558.58,527.46,545.48,527.48,544.21Zm0,0c.1-7.58-7.86-9.15-12.8-9.21-10.78-.15-32.68-2.54-32,10.21.62,12,7.78,14.08,20.18,13.06a67.12,67.12,0,0,1,7.9-.19C530.18,558.58,527.46,545.48,527.48,544.21Zm0,0c.1-7.58-7.86-9.15-12.8-9.21-10.78-.15-32.68-2.54-32,10.21.62,12,7.78,14.08,20.18,13.06a67.12,67.12,0,0,1,7.9-.19C530.18,558.58,527.46,545.48,527.48,544.21Zm0,0c.1-7.58-7.86-9.15-12.8-9.21-10.78-.15-32.68-2.54-32,10.21.62,12,7.78,14.08,20.18,13.06a67.12,67.12,0,0,1,7.9-.19C530.18,558.58,527.46,545.48,527.48,544.21Zm0,0c.1-7.58-7.86-9.15-12.8-9.21-10.78-.15-32.68-2.54-32,10.21.62,12,7.78,14.08,20.18,13.06a67.12,67.12,0,0,1,7.9-.19C530.18,558.58,527.46,545.48,527.48,544.21Zm-103.38,51c-4.75-7.57-14.11-4.89-26.39,4.34-6.08-6.77-12-9.82-17.78-7.9-6.41,2.13-9.38,9.5-6.84,15.76,3.32,8.17,10.19,13.59,19.28,17.31a5.47,5.47,0,0,0,3.54.27c11.22-3,20.39-7,26.12-12.89A13.85,13.85,0,0,0,424.1,595.17Zm-63.39-60.85c.1-7.57-7.86-9.15-12.77-9.21-10.81-.14-32.71-2.54-32.08,10.21.64,12,7.78,14.09,20.19,13.06a69.45,69.45,0,0,1,7.9-.18C363.43,548.69,360.69,535.59,360.71,534.32Zm0,0c.1-7.57-7.86-9.15-12.77-9.21-10.81-.14-32.71-2.54-32.08,10.21.64,12,7.78,14.09,20.19,13.06a69.45,69.45,0,0,1,7.9-.18C363.43,548.69,360.69,535.59,360.71,534.32Zm63.39,60.85c-4.75-7.57-14.11-4.89-26.39,4.34-6.08-6.77-12-9.82-17.78-7.9-6.41,2.13-9.38,9.5-6.84,15.76,3.32,8.17,10.19,13.59,19.28,17.31a5.47,5.47,0,0,0,3.54.27c11.22-3,20.39-7,26.12-12.89A13.85,13.85,0,0,0,424.1,595.17Zm103.38-51c.1-7.58-7.86-9.15-12.8-9.21-10.78-.15-32.68-2.54-32,10.21.62,12,7.78,14.08,20.18,13.06a67.12,67.12,0,0,1,7.9-.19C530.18,558.58,527.46,545.48,527.48,544.21Zm0,0c.1-7.58-7.86-9.15-12.8-9.21-10.78-.15-32.68-2.54-32,10.21.62,12,7.78,14.08,20.18,13.06a67.12,67.12,0,0,1,7.9-.19C530.18,558.58,527.46,545.48,527.48,544.21Zm0,0c.1-7.58-7.86-9.15-12.8-9.21-10.78-.15-32.68-2.54-32,10.21.62,12,7.78,14.08,20.18,13.06a67.12,67.12,0,0,1,7.9-.19C530.18,558.58,527.46,545.48,527.48,544.21Zm0,0c.1-7.58-7.86-9.15-12.8-9.21-10.78-.15-32.68-2.54-32,10.21.62,12,7.78,14.08,20.18,13.06a67.12,67.12,0,0,1,7.9-.19C530.18,558.58,527.46,545.48,527.48,544.21Zm0,0c.1-7.58-7.86-9.15-12.8-9.21-10.78-.15-32.68-2.54-32,10.21.62,12,7.78,14.08,20.18,13.06a67.12,67.12,0,0,1,7.9-.19C530.18,558.58,527.46,545.48,527.48,544.21Zm0,0c.1-7.58-7.86-9.15-12.8-9.21-10.78-.15-32.68-2.54-32,10.21.62,12,7.78,14.08,20.18,13.06a67.12,67.12,0,0,1,7.9-.19C530.18,558.58,527.46,545.48,527.48,544.21ZM516.26,469.6A77.77,77.77,0,1,0,594,547.36,77.77,77.77,0,0,0,516.26,469.6Zm-.84,132.75a55.24,55.24,0,1,1,55.24-55.24A55.22,55.22,0,0,1,515.42,602.35ZM514.68,535c-10.78-.15-32.68-2.54-32,10.21.62,12,7.78,14.08,20.18,13.06a67.12,67.12,0,0,1,7.9-.19c19.47.5,16.75-12.6,16.77-13.87C527.58,536.63,519.62,535.06,514.68,535Zm12.8,9.21c.1-7.58-7.86-9.15-12.8-9.21-10.78-.15-32.68-2.54-32,10.21.62,12,7.78,14.08,20.18,13.06a67.12,67.12,0,0,1,7.9-.19C530.18,558.58,527.46,545.48,527.48,544.21Zm0,0c.1-7.58-7.86-9.15-12.8-9.21-10.78-.15-32.68-2.54-32,10.21.62,12,7.78,14.08,20.18,13.06a67.12,67.12,0,0,1,7.9-.19C530.18,558.58,527.46,545.48,527.48,544.21Zm0,0c.1-7.58-7.86-9.15-12.8-9.21-10.78-.15-32.68-2.54-32,10.21.62,12,7.78,14.08,20.18,13.06a67.12,67.12,0,0,1,7.9-.19C530.18,558.58,527.46,545.48,527.48,544.21Zm0,0c.1-7.58-7.86-9.15-12.8-9.21-10.78-.15-32.68-2.54-32,10.21.62,12,7.78,14.08,20.18,13.06a67.12,67.12,0,0,1,7.9-.19C530.18,558.58,527.46,545.48,527.48,544.21Zm0,0c.1-7.58-7.86-9.15-12.8-9.21-10.78-.15-32.68-2.54-32,10.21.62,12,7.78,14.08,20.18,13.06a67.12,67.12,0,0,1,7.9-.19C530.18,558.58,527.46,545.48,527.48,544.21Zm0,0c.1-7.58-7.86-9.15-12.8-9.21-10.78-.15-32.68-2.54-32,10.21.62,12,7.78,14.08,20.18,13.06a67.12,67.12,0,0,1,7.9-.19C530.18,558.58,527.46,545.48,527.48,544.21Zm0,0c.1-7.58-7.86-9.15-12.8-9.21-10.78-.15-32.68-2.54-32,10.21.62,12,7.78,14.08,20.18,13.06a67.12,67.12,0,0,1,7.9-.19C530.18,558.58,527.46,545.48,527.48,544.21Zm0,0c.1-7.58-7.86-9.15-12.8-9.21-10.78-.15-32.68-2.54-32,10.21.62,12,7.78,14.08,20.18,13.06a67.12,67.12,0,0,1,7.9-.19C530.18,558.58,527.46,545.48,527.48,544.21ZM516.26,469.6A77.77,77.77,0,1,0,594,547.36,77.77,77.77,0,0,0,516.26,469.6Zm-.84,132.75a55.24,55.24,0,1,1,55.24-55.24A55.22,55.22,0,0,1,515.42,602.35ZM514.68,535c-10.78-.15-32.68-2.54-32,10.21.62,12,7.78,14.08,20.18,13.06a67.12,67.12,0,0,1,7.9-.19c19.47.5,16.75-12.6,16.77-13.87C527.58,536.63,519.62,535.06,514.68,535Zm12.8,9.21c.1-7.58-7.86-9.15-12.8-9.21-10.78-.15-32.68-2.54-32,10.21.62,12,7.78,14.08,20.18,13.06a67.12,67.12,0,0,1,7.9-.19C530.18,558.58,527.46,545.48,527.48,544.21Zm0,0c.1-7.58-7.86-9.15-12.8-9.21-10.78-.15-32.68-2.54-32,10.21.62,12,7.78,14.08,20.18,13.06a67.12,67.12,0,0,1,7.9-.19C530.18,558.58,527.46,545.48,527.48,544.21Zm0,0c.1-7.58-7.86-9.15-12.8-9.21-10.78-.15-32.68-2.54-32,10.21.62,12,7.78,14.08,20.18,13.06a67.12,67.12,0,0,1,7.9-.19C530.18,558.58,527.46,545.48,527.48,544.21Zm0,0c.1-7.58-7.86-9.15-12.8-9.21-10.78-.15-32.68-2.54-32,10.21.62,12,7.78,14.08,20.18,13.06a67.12,67.12,0,0,1,7.9-.19C530.18,558.58,527.46,545.48,527.48,544.21Zm-103.38,51c-4.75-7.57-14.11-4.89-26.39,4.34-6.08-6.77-12-9.82-17.78-7.9-6.41,2.13-9.38,9.5-6.84,15.76,3.32,8.17,10.19,13.59,19.28,17.31a5.47,5.47,0,0,0,3.54.27c11.22-3,20.39-7,26.12-12.89A13.85,13.85,0,0,0,424.1,595.17Zm-63.39-60.85c.1-7.57-7.86-9.15-12.77-9.21-10.81-.14-32.71-2.54-32.08,10.21.64,12,7.78,14.09,20.19,13.06a69.45,69.45,0,0,1,7.9-.18C363.43,548.69,360.69,535.59,360.71,534.32Zm0,0c.1-7.57-7.86-9.15-12.77-9.21-10.81-.14-32.71-2.54-32.08,10.21.64,12,7.78,14.09,20.19,13.06a69.45,69.45,0,0,1,7.9-.18C363.43,548.69,360.69,535.59,360.71,534.32Zm63.39,60.85c-4.75-7.57-14.11-4.89-26.39,4.34-6.08-6.77-12-9.82-17.78-7.9-6.41,2.13-9.38,9.5-6.84,15.76,3.32,8.17,10.19,13.59,19.28,17.31a5.47,5.47,0,0,0,3.54.27c11.22-3,20.39-7,26.12-12.89A13.85,13.85,0,0,0,424.1,595.17Zm103.38-51c.1-7.58-7.86-9.15-12.8-9.21-10.78-.15-32.68-2.54-32,10.21.62,12,7.78,14.08,20.18,13.06a67.12,67.12,0,0,1,7.9-.19C530.18,558.58,527.46,545.48,527.48,544.21Zm0,0c.1-7.58-7.86-9.15-12.8-9.21-10.78-.15-32.68-2.54-32,10.21.62,12,7.78,14.08,20.18,13.06a67.12,67.12,0,0,1,7.9-.19C530.18,558.58,527.46,545.48,527.48,544.21Zm0,0c.1-7.58-7.86-9.15-12.8-9.21-10.78-.15-32.68-2.54-32,10.21.62,12,7.78,14.08,20.18,13.06a67.12,67.12,0,0,1,7.9-.19C530.18,558.58,527.46,545.48,527.48,544.21Zm0,0c.1-7.58-7.86-9.15-12.8-9.21-10.78-.15-32.68-2.54-32,10.21.62,12,7.78,14.08,20.18,13.06a67.12,67.12,0,0,1,7.9-.19C530.18,558.58,527.46,545.48,527.48,544.21ZM516.26,469.6A77.77,77.77,0,1,0,594,547.36,77.77,77.77,0,0,0,516.26,469.6Zm-.84,132.75a55.24,55.24,0,1,1,55.24-55.24A55.22,55.22,0,0,1,515.42,602.35ZM514.68,535c-10.78-.15-32.68-2.54-32,10.21.62,12,7.78,14.08,20.18,13.06a67.12,67.12,0,0,1,7.9-.19c19.47.5,16.75-12.6,16.77-13.87C527.58,536.63,519.62,535.06,514.68,535Zm12.8,9.21c.1-7.58-7.86-9.15-12.8-9.21-10.78-.15-32.68-2.54-32,10.21.62,12,7.78,14.08,20.18,13.06a67.12,67.12,0,0,1,7.9-.19C530.18,558.58,527.46,545.48,527.48,544.21Zm0,0c.1-7.58-7.86-9.15-12.8-9.21-10.78-.15-32.68-2.54-32,10.21.62,12,7.78,14.08,20.18,13.06a67.12,67.12,0,0,1,7.9-.19C530.18,558.58,527.46,545.48,527.48,544.21Zm0,0c.1-7.58-7.86-9.15-12.8-9.21-10.78-.15-32.68-2.54-32,10.21.62,12,7.78,14.08,20.18,13.06a67.12,67.12,0,0,1,7.9-.19C530.18,558.58,527.46,545.48,527.48,544.21Zm0,0c.1-7.58-7.86-9.15-12.8-9.21-10.78-.15-32.68-2.54-32,10.21.62,12,7.78,14.08,20.18,13.06a67.12,67.12,0,0,1,7.9-.19C530.18,558.58,527.46,545.48,527.48,544.21ZM516.26,469.6A77.77,77.77,0,1,0,594,547.36,77.77,77.77,0,0,0,516.26,469.6Zm-.84,132.75a55.24,55.24,0,1,1,55.24-55.24A55.22,55.22,0,0,1,515.42,602.35ZM514.68,535c-10.78-.15-32.68-2.54-32,10.21.62,12,7.78,14.08,20.18,13.06a67.12,67.12,0,0,1,7.9-.19c19.47.5,16.75-12.6,16.77-13.87C527.58,536.63,519.62,535.06,514.68,535Zm12.8,9.21c.1-7.58-7.86-9.15-12.8-9.21-10.78-.15-32.68-2.54-32,10.21.62,12,7.78,14.08,20.18,13.06a67.12,67.12,0,0,1,7.9-.19C530.18,558.58,527.46,545.48,527.48,544.21Zm0,0c.1-7.58-7.86-9.15-12.8-9.21-10.78-.15-32.68-2.54-32,10.21.62,12,7.78,14.08,20.18,13.06a67.12,67.12,0,0,1,7.9-.19C530.18,558.58,527.46,545.48,527.48,544.21Zm-103.38,51c-4.75-7.57-14.11-4.89-26.39,4.34-6.08-6.77-12-9.82-17.78-7.9-6.41,2.13-9.38,9.5-6.84,15.76,3.32,8.17,10.19,13.59,19.28,17.31a5.47,5.47,0,0,0,3.54.27c11.22-3,20.39-7,26.12-12.89A13.85,13.85,0,0,0,424.1,595.17Zm-63.39-60.85c.1-7.57-7.86-9.15-12.77-9.21-10.81-.14-32.71-2.54-32.08,10.21.64,12,7.78,14.09,20.19,13.06a69.45,69.45,0,0,1,7.9-.18C363.43,548.69,360.69,535.59,360.71,534.32Zm0,0c.1-7.57-7.86-9.15-12.77-9.21-10.81-.14-32.71-2.54-32.08,10.21.64,12,7.78,14.09,20.19,13.06a69.45,69.45,0,0,1,7.9-.18C363.43,548.69,360.69,535.59,360.71,534.32Zm63.39,60.85c-4.75-7.57-14.11-4.89-26.39,4.34-6.08-6.77-12-9.82-17.78-7.9-6.41,2.13-9.38,9.5-6.84,15.76,3.32,8.17,10.19,13.59,19.28,17.31a5.47,5.47,0,0,0,3.54.27c11.22-3,20.39-7,26.12-12.89A13.85,13.85,0,0,0,424.1,595.17Zm103.38-51c.1-7.58-7.86-9.15-12.8-9.21-10.78-.15-32.68-2.54-32,10.21.62,12,7.78,14.08,20.18,13.06a67.12,67.12,0,0,1,7.9-.19C530.18,558.58,527.46,545.48,527.48,544.21Zm0,0c.1-7.58-7.86-9.15-12.8-9.21-10.78-.15-32.68-2.54-32,10.21.62,12,7.78,14.08,20.18,13.06a67.12,67.12,0,0,1,7.9-.19C530.18,558.58,527.46,545.48,527.48,544.21ZM516.26,469.6A77.77,77.77,0,1,0,594,547.36,77.77,77.77,0,0,0,516.26,469.6Zm-.84,132.75a55.24,55.24,0,1,1,55.24-55.24A55.22,55.22,0,0,1,515.42,602.35ZM514.68,535c-10.78-.15-32.68-2.54-32,10.21.62,12,7.78,14.08,20.18,13.06a67.12,67.12,0,0,1,7.9-.19c19.47.5,16.75-12.6,16.77-13.87C527.58,536.63,519.62,535.06,514.68,535Zm1.58-65.4A77.77,77.77,0,1,0,594,547.36,77.77,77.77,0,0,0,516.26,469.6Zm-.84,132.75a55.24,55.24,0,1,1,55.24-55.24A55.22,55.22,0,0,1,515.42,602.35ZM514.68,535c-10.78-.15-32.68-2.54-32,10.21.62,12,7.78,14.08,20.18,13.06a67.12,67.12,0,0,1,7.9-.19c19.47.5,16.75-12.6,16.77-13.87C527.58,536.63,519.62,535.06,514.68,535Zm-117,64.51c-6.08-6.77-12-9.82-17.78-7.9-6.41,2.13-9.38,9.5-6.84,15.76,3.32,8.17,10.19,13.59,19.28,17.31a5.47,5.47,0,0,0,3.54.27c11.22-3,20.39-7,26.12-12.89a13.85,13.85,0,0,0,2.07-16.89C419.35,587.6,410,590.28,397.71,599.51Zm-37-65.19c.1-7.57-7.86-9.15-12.77-9.21-10.81-.14-32.71-2.54-32.08,10.21.64,12,7.78,14.09,20.19,13.06a69.45,69.45,0,0,1,7.9-.18C363.43,548.69,360.69,535.59,360.71,534.32ZM532.94,36.4C255,36.4,29.71,261.71,29.71,539.64S255,1042.87,532.94,1042.87s503.23-225.3,503.23-503.23S810.87,36.4,532.94,36.4Zm274.18,434a49.29,49.29,0,0,1,34.82,24.44c10.09,18.3,5.62,38.5-17,59.21-19.77-21.24-41.08-37.8-65.17-45.82C768.34,479.8,783.73,466.33,807.12,470.4ZM667.8,368.09c19,23,17.83,46.89,0,71.41-18.69-35.19-44.68-60.55-78.16-75.79Q628.72,331.1,667.8,368.09ZM308,360.35c21.71-15.43,40.64-15.33,57.26-2.37-30.47,17.33-49.18,38.9-60,63.32C290.55,400.75,290.38,380.41,308,360.35Zm-25.71,193.7c18.85-18.13,25.46-63.3,26.89-81.5a1.45,1.45,0,0,1,1.23-1.33c43.74-7,74.69,19.53,71.86,64.88-9.25,48.55-68.11,60.91-100.17,20.08A1.59,1.59,0,0,1,282.32,554.05Zm12.34,159.52a396.83,396.83,0,0,1-48.55.25,20,20,0,0,1-16.76-11.09c-5.38-11.24,1.37-24.4,19.53-26.9a4.68,4.68,0,0,1,4.25,1.7c10.75,13.35,25.1,24.11,42.19,32.91A1.66,1.66,0,0,1,294.66,713.57Zm186.27-43.65c-9.68,10.46-11.6,24.41-7.51,41.08-62.77,5.24-117.17,1.45-159-15.83-61.22-23.59-80.93-79-49.86-124C301.72,622.74,399,611.38,404,529.43c-.47-53.38-29.88-79.72-85.56-81.5,18.18-47.48,49.15-78.27,98.35-85.23,10.25-3.84,12.57-11.72,7.08-23.57,17.21,2.53,21.08,8.51,27.61,9.29,7.19-3.54,10-9.89,9.44-18.4,18.52,7.08,33.26,18.83,45.48,33.69,0,0,56,5.5,90.95,29,38.93,26.16,56.37,69.71,56.92,70,13.74,7.75,22.58,118.56,9.79,140.12-32.77-2-61,18-92,36.39-19.12,8.55-42.62,14.59-68.94,19A39,39,0,0,0,480.93,669.92Zm223.49.33c-2.6,20.77-12.86,33.73-29.76,40A59.23,59.23,0,0,1,659,713.57a955.6,955.6,0,0,1-146.65.17,23.13,23.13,0,0,1-17.64-10C486.3,691,496,676.9,525.55,675.3c30.07-3.15,60.67-19,102.87-40.67a88.41,88.41,0,0,1,36-9.84C697.07,623.19,704.68,640.69,704.42,670.25ZM759.78,711a2.57,2.57,0,0,1-2.15,2.51c-17.58,2.89-33.57,2.75-47.52-1.27a.77.77,0,0,1-.39-1.24c26.65-33.28,19.07-92.95-22.23-106.21,6.47-26.2,6-57.72,2.54-91.45,87.39,12.61,139.48,50.8,144.25,123.28C785,630.25,760.58,655.59,759.78,711Zm88.64-20c3.07,20.22-10.6,23.39-34.1,22.17l-23.06.08a8.64,8.64,0,0,1-8.25-6,36.82,36.82,0,0,1-.88-19.4c4-17.85,20.08-30.34,38.36-30.87,19.19-.53,31.39,1.13,28.16,20.69A42.42,42.42,0,0,0,848.42,691ZM594,547.36a77.76,77.76,0,1,0-77.76,77.78A77.77,77.77,0,0,0,594,547.36Zm-133.84-.25a55.24,55.24,0,1,1,55.24,55.24A55.24,55.24,0,0,1,460.18,547.11ZM514.68,535c-10.78-.15-32.68-2.54-32,10.21.62,12,7.78,14.08,20.18,13.06a67.12,67.12,0,0,1,7.9-.19c19.47.5,16.75-12.6,16.77-13.87C527.58,536.63,519.62,535.06,514.68,535Zm-117,64.51c-6.08-6.77-12-9.82-17.78-7.9-6.41,2.13-9.38,9.5-6.84,15.76,3.32,8.17,10.19,13.59,19.28,17.31a5.47,5.47,0,0,0,3.54.27c11.22-3,20.39-7,26.12-12.89a13.85,13.85,0,0,0,2.07-16.89C419.35,587.6,410,590.28,397.71,599.51Zm-61.66-51.13a69.45,69.45,0,0,1,7.9-.18c19.48.49,16.74-12.61,16.76-13.88.1-7.57-7.86-9.15-12.77-9.21-10.81-.14-32.71-2.54-32.08,10.21C316.5,547.34,323.64,549.41,336.05,548.38Zm24.66-14.06c.1-7.57-7.86-9.15-12.77-9.21-10.81-.14-32.71-2.54-32.08,10.21.64,12,7.78,14.09,20.19,13.06a69.45,69.45,0,0,1,7.9-.18C363.43,548.69,360.69,535.59,360.71,534.32Zm63.39,60.85c-4.75-7.57-14.11-4.89-26.39,4.34-6.08-6.77-12-9.82-17.78-7.9-6.41,2.13-9.38,9.5-6.84,15.76,3.32,8.17,10.19,13.59,19.28,17.31a5.47,5.47,0,0,0,3.54.27c11.22-3,20.39-7,26.12-12.89A13.85,13.85,0,0,0,424.1,595.17Zm103.38-51c.1-7.58-7.86-9.15-12.8-9.21-10.78-.15-32.68-2.54-32,10.21.62,12,7.78,14.08,20.18,13.06a67.12,67.12,0,0,1,7.9-.19C530.18,558.58,527.46,545.48,527.48,544.21Zm0,0c.1-7.58-7.86-9.15-12.8-9.21-10.78-.15-32.68-2.54-32,10.21.62,12,7.78,14.08,20.18,13.06a67.12,67.12,0,0,1,7.9-.19C530.18,558.58,527.46,545.48,527.48,544.21ZM516.26,469.6A77.77,77.77,0,1,0,594,547.36,77.77,77.77,0,0,0,516.26,469.6Zm-.84,132.75a55.24,55.24,0,1,1,55.24-55.24A55.22,55.22,0,0,1,515.42,602.35ZM514.68,535c-10.78-.15-32.68-2.54-32,10.21.62,12,7.78,14.08,20.18,13.06a67.12,67.12,0,0,1,7.9-.19c19.47.5,16.75-12.6,16.77-13.87C527.58,536.63,519.62,535.06,514.68,535Zm12.8,9.21c.1-7.58-7.86-9.15-12.8-9.21-10.78-.15-32.68-2.54-32,10.21.62,12,7.78,14.08,20.18,13.06a67.12,67.12,0,0,1,7.9-.19C530.18,558.58,527.46,545.48,527.48,544.21Zm0,0c.1-7.58-7.86-9.15-12.8-9.21-10.78-.15-32.68-2.54-32,10.21.62,12,7.78,14.08,20.18,13.06a67.12,67.12,0,0,1,7.9-.19C530.18,558.58,527.46,545.48,527.48,544.21ZM516.26,469.6A77.77,77.77,0,1,0,594,547.36,77.77,77.77,0,0,0,516.26,469.6Zm-.84,132.75a55.24,55.24,0,1,1,55.24-55.24A55.22,55.22,0,0,1,515.42,602.35ZM514.68,535c-10.78-.15-32.68-2.54-32,10.21.62,12,7.78,14.08,20.18,13.06a67.12,67.12,0,0,1,7.9-.19c19.47.5,16.75-12.6,16.77-13.87C527.58,536.63,519.62,535.06,514.68,535Zm12.8,9.21c.1-7.58-7.86-9.15-12.8-9.21-10.78-.15-32.68-2.54-32,10.21.62,12,7.78,14.08,20.18,13.06a67.12,67.12,0,0,1,7.9-.19C530.18,558.58,527.46,545.48,527.48,544.21Zm0,0c.1-7.58-7.86-9.15-12.8-9.21-10.78-.15-32.68-2.54-32,10.21.62,12,7.78,14.08,20.18,13.06a67.12,67.12,0,0,1,7.9-.19C530.18,558.58,527.46,545.48,527.48,544.21Zm-103.38,51c-4.75-7.57-14.11-4.89-26.39,4.34-6.08-6.77-12-9.82-17.78-7.9-6.41,2.13-9.38,9.5-6.84,15.76,3.32,8.17,10.19,13.59,19.28,17.31a5.47,5.47,0,0,0,3.54.27c11.22-3,20.39-7,26.12-12.89A13.85,13.85,0,0,0,424.1,595.17Zm-63.39-60.85c.1-7.57-7.86-9.15-12.77-9.21-10.81-.14-32.71-2.54-32.08,10.21.64,12,7.78,14.09,20.19,13.06a69.45,69.45,0,0,1,7.9-.18C363.43,548.69,360.69,535.59,360.71,534.32Zm0,0c.1-7.57-7.86-9.15-12.77-9.21-10.81-.14-32.71-2.54-32.08,10.21.64,12,7.78,14.09,20.19,13.06a69.45,69.45,0,0,1,7.9-.18C363.43,548.69,360.69,535.59,360.71,534.32Zm63.39,60.85c-4.75-7.57-14.11-4.89-26.39,4.34-6.08-6.77-12-9.82-17.78-7.9-6.41,2.13-9.38,9.5-6.84,15.76,3.32,8.17,10.19,13.59,19.28,17.31a5.47,5.47,0,0,0,3.54.27c11.22-3,20.39-7,26.12-12.89A13.85,13.85,0,0,0,424.1,595.17Zm103.38-51c.1-7.58-7.86-9.15-12.8-9.21-10.78-.15-32.68-2.54-32,10.21.62,12,7.78,14.08,20.18,13.06a67.12,67.12,0,0,1,7.9-.19C530.18,558.58,527.46,545.48,527.48,544.21Zm0,0c.1-7.58-7.86-9.15-12.8-9.21-10.78-.15-32.68-2.54-32,10.21.62,12,7.78,14.08,20.18,13.06a67.12,67.12,0,0,1,7.9-.19C530.18,558.58,527.46,545.48,527.48,544.21Zm0,0c.1-7.58-7.86-9.15-12.8-9.21-10.78-.15-32.68-2.54-32,10.21.62,12,7.78,14.08,20.18,13.06a67.12,67.12,0,0,1,7.9-.19C530.18,558.58,527.46,545.48,527.48,544.21Zm0,0c.1-7.58-7.86-9.15-12.8-9.21-10.78-.15-32.68-2.54-32,10.21.62,12,7.78,14.08,20.18,13.06a67.12,67.12,0,0,1,7.9-.19C530.18,558.58,527.46,545.48,527.48,544.21ZM516.26,469.6A77.77,77.77,0,1,0,594,547.36,77.77,77.77,0,0,0,516.26,469.6Zm-.84,132.75a55.24,55.24,0,1,1,55.24-55.24A55.22,55.22,0,0,1,515.42,602.35ZM514.68,535c-10.78-.15-32.68-2.54-32,10.21.62,12,7.78,14.08,20.18,13.06a67.12,67.12,0,0,1,7.9-.19c19.47.5,16.75-12.6,16.77-13.87C527.58,536.63,519.62,535.06,514.68,535Zm12.8,9.21c.1-7.58-7.86-9.15-12.8-9.21-10.78-.15-32.68-2.54-32,10.21.62,12,7.78,14.08,20.18,13.06a67.12,67.12,0,0,1,7.9-.19C530.18,558.58,527.46,545.48,527.48,544.21Zm0,0c.1-7.58-7.86-9.15-12.8-9.21-10.78-.15-32.68-2.54-32,10.21.62,12,7.78,14.08,20.18,13.06a67.12,67.12,0,0,1,7.9-.19C530.18,558.58,527.46,545.48,527.48,544.21Zm0,0c.1-7.58-7.86-9.15-12.8-9.21-10.78-.15-32.68-2.54-32,10.21.62,12,7.78,14.08,20.18,13.06a67.12,67.12,0,0,1,7.9-.19C530.18,558.58,527.46,545.48,527.48,544.21Zm0,0c.1-7.58-7.86-9.15-12.8-9.21-10.78-.15-32.68-2.54-32,10.21.62,12,7.78,14.08,20.18,13.06a67.12,67.12,0,0,1,7.9-.19C530.18,558.58,527.46,545.48,527.48,544.21Zm0,0c.1-7.58-7.86-9.15-12.8-9.21-10.78-.15-32.68-2.54-32,10.21.62,12,7.78,14.08,20.18,13.06a67.12,67.12,0,0,1,7.9-.19C530.18,558.58,527.46,545.48,527.48,544.21Zm0,0c.1-7.58-7.86-9.15-12.8-9.21-10.78-.15-32.68-2.54-32,10.21.62,12,7.78,14.08,20.18,13.06a67.12,67.12,0,0,1,7.9-.19C530.18,558.58,527.46,545.48,527.48,544.21ZM516.26,469.6A77.77,77.77,0,1,0,594,547.36,77.77,77.77,0,0,0,516.26,469.6Zm-.84,132.75a55.24,55.24,0,1,1,55.24-55.24A55.22,55.22,0,0,1,515.42,602.35ZM514.68,535c-10.78-.15-32.68-2.54-32,10.21.62,12,7.78,14.08,20.18,13.06a67.12,67.12,0,0,1,7.9-.19c19.47.5,16.75-12.6,16.77-13.87C527.58,536.63,519.62,535.06,514.68,535Zm12.8,9.21c.1-7.58-7.86-9.15-12.8-9.21-10.78-.15-32.68-2.54-32,10.21.62,12,7.78,14.08,20.18,13.06a67.12,67.12,0,0,1,7.9-.19C530.18,558.58,527.46,545.48,527.48,544.21Zm0,0c.1-7.58-7.86-9.15-12.8-9.21-10.78-.15-32.68-2.54-32,10.21.62,12,7.78,14.08,20.18,13.06a67.12,67.12,0,0,1,7.9-.19C530.18,558.58,527.46,545.48,527.48,544.21Zm0,0c.1-7.58-7.86-9.15-12.8-9.21-10.78-.15-32.68-2.54-32,10.21.62,12,7.78,14.08,20.18,13.06a67.12,67.12,0,0,1,7.9-.19C530.18,558.58,527.46,545.48,527.48,544.21Zm0,0c.1-7.58-7.86-9.15-12.8-9.21-10.78-.15-32.68-2.54-32,10.21.62,12,7.78,14.08,20.18,13.06a67.12,67.12,0,0,1,7.9-.19C530.18,558.58,527.46,545.48,527.48,544.21Zm-103.38,51c-4.75-7.57-14.11-4.89-26.39,4.34-6.08-6.77-12-9.82-17.78-7.9-6.41,2.13-9.38,9.5-6.84,15.76,3.32,8.17,10.19,13.59,19.28,17.31a5.47,5.47,0,0,0,3.54.27c11.22-3,20.39-7,26.12-12.89A13.85,13.85,0,0,0,424.1,595.17Zm-63.39-60.85c.1-7.57-7.86-9.15-12.77-9.21-10.81-.14-32.71-2.54-32.08,10.21.64,12,7.78,14.09,20.19,13.06a69.45,69.45,0,0,1,7.9-.18C363.43,548.69,360.69,535.59,360.71,534.32Zm0,0c.1-7.57-7.86-9.15-12.77-9.21-10.81-.14-32.71-2.54-32.08,10.21.64,12,7.78,14.09,20.19,13.06a69.45,69.45,0,0,1,7.9-.18C363.43,548.69,360.69,535.59,360.71,534.32Zm63.39,60.85c-4.75-7.57-14.11-4.89-26.39,4.34-6.08-6.77-12-9.82-17.78-7.9-6.41,2.13-9.38,9.5-6.84,15.76,3.32,8.17,10.19,13.59,19.28,17.31a5.47,5.47,0,0,0,3.54.27c11.22-3,20.39-7,26.12-12.89A13.85,13.85,0,0,0,424.1,595.17Zm103.38-51c.1-7.58-7.86-9.15-12.8-9.21-10.78-.15-32.68-2.54-32,10.21.62,12,7.78,14.08,20.18,13.06a67.12,67.12,0,0,1,7.9-.19C530.18,558.58,527.46,545.48,527.48,544.21Zm0,0c.1-7.58-7.86-9.15-12.8-9.21-10.78-.15-32.68-2.54-32,10.21.62,12,7.78,14.08,20.18,13.06a67.12,67.12,0,0,1,7.9-.19C530.18,558.58,527.46,545.48,527.48,544.21Zm0,0c.1-7.58-7.86-9.15-12.8-9.21-10.78-.15-32.68-2.54-32,10.21.62,12,7.78,14.08,20.18,13.06a67.12,67.12,0,0,1,7.9-.19C530.18,558.58,527.46,545.48,527.48,544.21Zm0,0c.1-7.58-7.86-9.15-12.8-9.21-10.78-.15-32.68-2.54-32,10.21.62,12,7.78,14.08,20.18,13.06a67.12,67.12,0,0,1,7.9-.19C530.18,558.58,527.46,545.48,527.48,544.21Zm0,0c.1-7.58-7.86-9.15-12.8-9.21-10.78-.15-32.68-2.54-32,10.21.62,12,7.78,14.08,20.18,13.06a67.12,67.12,0,0,1,7.9-.19C530.18,558.58,527.46,545.48,527.48,544.21Zm0,0c.1-7.58-7.86-9.15-12.8-9.21-10.78-.15-32.68-2.54-32,10.21.62,12,7.78,14.08,20.18,13.06a67.12,67.12,0,0,1,7.9-.19C530.18,558.58,527.46,545.48,527.48,544.21ZM516.26,469.6A77.77,77.77,0,1,0,594,547.36,77.77,77.77,0,0,0,516.26,469.6Zm-.84,132.75a55.24,55.24,0,1,1,55.24-55.24A55.22,55.22,0,0,1,515.42,602.35ZM514.68,535c-10.78-.15-32.68-2.54-32,10.21.62,12,7.78,14.08,20.18,13.06a67.12,67.12,0,0,1,7.9-.19c19.47.5,16.75-12.6,16.77-13.87C527.58,536.63,519.62,535.06,514.68,535Zm12.8,9.21c.1-7.58-7.86-9.15-12.8-9.21-10.78-.15-32.68-2.54-32,10.21.62,12,7.78,14.08,20.18,13.06a67.12,67.12,0,0,1,7.9-.19C530.18,558.58,527.46,545.48,527.48,544.21Zm0,0c.1-7.58-7.86-9.15-12.8-9.21-10.78-.15-32.68-2.54-32,10.21.62,12,7.78,14.08,20.18,13.06a67.12,67.12,0,0,1,7.9-.19C530.18,558.58,527.46,545.48,527.48,544.21Zm0,0c.1-7.58-7.86-9.15-12.8-9.21-10.78-.15-32.68-2.54-32,10.21.62,12,7.78,14.08,20.18,13.06a67.12,67.12,0,0,1,7.9-.19C530.18,558.58,527.46,545.48,527.48,544.21Zm0,0c.1-7.58-7.86-9.15-12.8-9.21-10.78-.15-32.68-2.54-32,10.21.62,12,7.78,14.08,20.18,13.06a67.12,67.12,0,0,1,7.9-.19C530.18,558.58,527.46,545.48,527.48,544.21Zm0,0c.1-7.58-7.86-9.15-12.8-9.21-10.78-.15-32.68-2.54-32,10.21.62,12,7.78,14.08,20.18,13.06a67.12,67.12,0,0,1,7.9-.19C530.18,558.58,527.46,545.48,527.48,544.21Zm0,0c.1-7.58-7.86-9.15-12.8-9.21-10.78-.15-32.68-2.54-32,10.21.62,12,7.78,14.08,20.18,13.06a67.12,67.12,0,0,1,7.9-.19C530.18,558.58,527.46,545.48,527.48,544.21Zm0,0c.1-7.58-7.86-9.15-12.8-9.21-10.78-.15-32.68-2.54-32,10.21.62,12,7.78,14.08,20.18,13.06a67.12,67.12,0,0,1,7.9-.19C530.18,558.58,527.46,545.48,527.48,544.21Zm0,0c.1-7.58-7.86-9.15-12.8-9.21-10.78-.15-32.68-2.54-32,10.21.62,12,7.78,14.08,20.18,13.06a67.12,67.12,0,0,1,7.9-.19C530.18,558.58,527.46,545.48,527.48,544.21Zm0,0c.1-7.58-7.86-9.15-12.8-9.21-10.78-.15-32.68-2.54-32,10.21.62,12,7.78,14.08,20.18,13.06a67.12,67.12,0,0,1,7.9-.19C530.18,558.58,527.46,545.48,527.48,544.21Zm0,0c.1-7.58-7.86-9.15-12.8-9.21-10.78-.15-32.68-2.54-32,10.21.62,12,7.78,14.08,20.18,13.06a67.12,67.12,0,0,1,7.9-.19C530.18,558.58,527.46,545.48,527.48,544.21ZM516.26,469.6A77.77,77.77,0,1,0,594,547.36,77.77,77.77,0,0,0,516.26,469.6Zm-.84,132.75a55.24,55.24,0,1,1,55.24-55.24A55.22,55.22,0,0,1,515.42,602.35ZM514.68,535c-10.78-.15-32.68-2.54-32,10.21.62,12,7.78,14.08,20.18,13.06a67.12,67.12,0,0,1,7.9-.19c19.47.5,16.75-12.6,16.77-13.87C527.58,536.63,519.62,535.06,514.68,535Zm12.8,9.21c.1-7.58-7.86-9.15-12.8-9.21-10.78-.15-32.68-2.54-32,10.21.62,12,7.78,14.08,20.18,13.06a67.12,67.12,0,0,1,7.9-.19C530.18,558.58,527.46,545.48,527.48,544.21Zm0,0c.1-7.58-7.86-9.15-12.8-9.21-10.78-.15-32.68-2.54-32,10.21.62,12,7.78,14.08,20.18,13.06a67.12,67.12,0,0,1,7.9-.19C530.18,558.58,527.46,545.48,527.48,544.21Zm0,0c.1-7.58-7.86-9.15-12.8-9.21-10.78-.15-32.68-2.54-32,10.21.62,12,7.78,14.08,20.18,13.06a67.12,67.12,0,0,1,7.9-.19C530.18,558.58,527.46,545.48,527.48,544.21Zm0,0c.1-7.58-7.86-9.15-12.8-9.21-10.78-.15-32.68-2.54-32,10.21.62,12,7.78,14.08,20.18,13.06a67.12,67.12,0,0,1,7.9-.19C530.18,558.58,527.46,545.48,527.48,544.21Zm0,0c.1-7.58-7.86-9.15-12.8-9.21-10.78-.15-32.68-2.54-32,10.21.62,12,7.78,14.08,20.18,13.06a67.12,67.12,0,0,1,7.9-.19C530.18,558.58,527.46,545.48,527.48,544.21Zm0,0c.1-7.58-7.86-9.15-12.8-9.21-10.78-.15-32.68-2.54-32,10.21.62,12,7.78,14.08,20.18,13.06a67.12,67.12,0,0,1,7.9-.19C530.18,558.58,527.46,545.48,527.48,544.21Zm-103.38,51c-4.75-7.57-14.11-4.89-26.39,4.34-6.08-6.77-12-9.82-17.78-7.9-6.41,2.13-9.38,9.5-6.84,15.76,3.32,8.17,10.19,13.59,19.28,17.31a5.47,5.47,0,0,0,3.54.27c11.22-3,20.39-7,26.12-12.89A13.85,13.85,0,0,0,424.1,595.17Zm-63.39-60.85c.1-7.57-7.86-9.15-12.77-9.21-10.81-.14-32.71-2.54-32.08,10.21.64,12,7.78,14.09,20.19,13.06a69.45,69.45,0,0,1,7.9-.18C363.43,548.69,360.69,535.59,360.71,534.32Zm0,0c.1-7.57-7.86-9.15-12.77-9.21-10.81-.14-32.71-2.54-32.08,10.21.64,12,7.78,14.09,20.19,13.06a69.45,69.45,0,0,1,7.9-.18C363.43,548.69,360.69,535.59,360.71,534.32Zm63.39,60.85c-4.75-7.57-14.11-4.89-26.39,4.34-6.08-6.77-12-9.82-17.78-7.9-6.41,2.13-9.38,9.5-6.84,15.76,3.32,8.17,10.19,13.59,19.28,17.31a5.47,5.47,0,0,0,3.54.27c11.22-3,20.39-7,26.12-12.89A13.85,13.85,0,0,0,424.1,595.17Zm103.38-51c.1-7.58-7.86-9.15-12.8-9.21-10.78-.15-32.68-2.54-32,10.21.62,12,7.78,14.08,20.18,13.06a67.12,67.12,0,0,1,7.9-.19C530.18,558.58,527.46,545.48,527.48,544.21Zm0,0c.1-7.58-7.86-9.15-12.8-9.21-10.78-.15-32.68-2.54-32,10.21.62,12,7.78,14.08,20.18,13.06a67.12,67.12,0,0,1,7.9-.19C530.18,558.58,527.46,545.48,527.48,544.21Zm0,0c.1-7.58-7.86-9.15-12.8-9.21-10.78-.15-32.68-2.54-32,10.21.62,12,7.78,14.08,20.18,13.06a67.12,67.12,0,0,1,7.9-.19C530.18,558.58,527.46,545.48,527.48,544.21Zm0,0c.1-7.58-7.86-9.15-12.8-9.21-10.78-.15-32.68-2.54-32,10.21.62,12,7.78,14.08,20.18,13.06a67.12,67.12,0,0,1,7.9-.19C530.18,558.58,527.46,545.48,527.48,544.21Zm0,0c.1-7.58-7.86-9.15-12.8-9.21-10.78-.15-32.68-2.54-32,10.21.62,12,7.78,14.08,20.18,13.06a67.12,67.12,0,0,1,7.9-.19C530.18,558.58,527.46,545.48,527.48,544.21Zm0,0c.1-7.58-7.86-9.15-12.8-9.21-10.78-.15-32.68-2.54-32,10.21.62,12,7.78,14.08,20.18,13.06a67.12,67.12,0,0,1,7.9-.19C530.18,558.58,527.46,545.48,527.48,544.21Zm0,0c.1-7.58-7.86-9.15-12.8-9.21-10.78-.15-32.68-2.54-32,10.21.62,12,7.78,14.08,20.18,13.06a67.12,67.12,0,0,1,7.9-.19C530.18,558.58,527.46,545.48,527.48,544.21Zm0,0c.1-7.58-7.86-9.15-12.8-9.21-10.78-.15-32.68-2.54-32,10.21.62,12,7.78,14.08,20.18,13.06a67.12,67.12,0,0,1,7.9-.19C530.18,558.58,527.46,545.48,527.48,544.21ZM516.26,469.6A77.77,77.77,0,1,0,594,547.36,77.77,77.77,0,0,0,516.26,469.6Zm-.84,132.75a55.24,55.24,0,1,1,55.24-55.24A55.22,55.22,0,0,1,515.42,602.35ZM514.68,535c-10.78-.15-32.68-2.54-32,10.21.62,12,7.78,14.08,20.18,13.06a67.12,67.12,0,0,1,7.9-.19c19.47.5,16.75-12.6,16.77-13.87C527.58,536.63,519.62,535.06,514.68,535Zm12.8,9.21c.1-7.58-7.86-9.15-12.8-9.21-10.78-.15-32.68-2.54-32,10.21.62,12,7.78,14.08,20.18,13.06a67.12,67.12,0,0,1,7.9-.19C530.18,558.58,527.46,545.48,527.48,544.21Zm0,0c.1-7.58-7.86-9.15-12.8-9.21-10.78-.15-32.68-2.54-32,10.21.62,12,7.78,14.08,20.18,13.06a67.12,67.12,0,0,1,7.9-.19C530.18,558.58,527.46,545.48,527.48,544.21Zm0,0c.1-7.58-7.86-9.15-12.8-9.21-10.78-.15-32.68-2.54-32,10.21.62,12,7.78,14.08,20.18,13.06a67.12,67.12,0,0,1,7.9-.19C530.18,558.58,527.46,545.48,527.48,544.21Zm0,0c.1-7.58-7.86-9.15-12.8-9.21-10.78-.15-32.68-2.54-32,10.21.62,12,7.78,14.08,20.18,13.06a67.12,67.12,0,0,1,7.9-.19C530.18,558.58,527.46,545.48,527.48,544.21Zm0,0c.1-7.58-7.86-9.15-12.8-9.21-10.78-.15-32.68-2.54-32,10.21.62,12,7.78,14.08,20.18,13.06a67.12,67.12,0,0,1,7.9-.19C530.18,558.58,527.46,545.48,527.48,544.21Zm0,0c.1-7.58-7.86-9.15-12.8-9.21-10.78-.15-32.68-2.54-32,10.21.62,12,7.78,14.08,20.18,13.06a67.12,67.12,0,0,1,7.9-.19C530.18,558.58,527.46,545.48,527.48,544.21Zm0,0c.1-7.58-7.86-9.15-12.8-9.21-10.78-.15-32.68-2.54-32,10.21.62,12,7.78,14.08,20.18,13.06a67.12,67.12,0,0,1,7.9-.19C530.18,558.58,527.46,545.48,527.48,544.21Zm0,0c.1-7.58-7.86-9.15-12.8-9.21-10.78-.15-32.68-2.54-32,10.21.62,12,7.78,14.08,20.18,13.06a67.12,67.12,0,0,1,7.9-.19C530.18,558.58,527.46,545.48,527.48,544.21Zm0,0c.1-7.58-7.86-9.15-12.8-9.21-10.78-.15-32.68-2.54-32,10.21.62,12,7.78,14.08,20.18,13.06a67.12,67.12,0,0,1,7.9-.19C530.18,558.58,527.46,545.48,527.48,544.21Zm0,0c.1-7.58-7.86-9.15-12.8-9.21-10.78-.15-32.68-2.54-32,10.21.62,12,7.78,14.08,20.18,13.06a67.12,67.12,0,0,1,7.9-.19C530.18,558.58,527.46,545.48,527.48,544.21Zm0,0c.1-7.58-7.86-9.15-12.8-9.21-10.78-.15-32.68-2.54-32,10.21.62,12,7.78,14.08,20.18,13.06a67.12,67.12,0,0,1,7.9-.19C530.18,558.58,527.46,545.48,527.48,544.21Zm0,0c.1-7.58-7.86-9.15-12.8-9.21-10.78-.15-32.68-2.54-32,10.21.62,12,7.78,14.08,20.18,13.06a67.12,67.12,0,0,1,7.9-.19C530.18,558.58,527.46,545.48,527.48,544.21Zm0,0c.1-7.58-7.86-9.15-12.8-9.21-10.78-.15-32.68-2.54-32,10.21.62,12,7.78,14.08,20.18,13.06a67.12,67.12,0,0,1,7.9-.19C530.18,558.58,527.46,545.48,527.48,544.21Zm0,0c.1-7.58-7.86-9.15-12.8-9.21-10.78-.15-32.68-2.54-32,10.21.62,12,7.78,14.08,20.18,13.06a67.12,67.12,0,0,1,7.9-.19C530.18,558.58,527.46,545.48,527.48,544.21ZM516.26,469.6A77.77,77.77,0,1,0,594,547.36,77.77,77.77,0,0,0,516.26,469.6Zm-.84,132.75a55.24,55.24,0,1,1,55.24-55.24A55.22,55.22,0,0,1,515.42,602.35ZM514.68,535c-10.78-.15-32.68-2.54-32,10.21.62,12,7.78,14.08,20.18,13.06a67.12,67.12,0,0,1,7.9-.19c19.47.5,16.75-12.6,16.77-13.87C527.58,536.63,519.62,535.06,514.68,535Zm12.8,9.21c.1-7.58-7.86-9.15-12.8-9.21-10.78-.15-32.68-2.54-32,10.21.62,12,7.78,14.08,20.18,13.06a67.12,67.12,0,0,1,7.9-.19C530.18,558.58,527.46,545.48,527.48,544.21Zm0,0c.1-7.58-7.86-9.15-12.8-9.21-10.78-.15-32.68-2.54-32,10.21.62,12,7.78,14.08,20.18,13.06a67.12,67.12,0,0,1,7.9-.19C530.18,558.58,527.46,545.48,527.48,544.21Zm0,0c.1-7.58-7.86-9.15-12.8-9.21-10.78-.15-32.68-2.54-32,10.21.62,12,7.78,14.08,20.18,13.06a67.12,67.12,0,0,1,7.9-.19C530.18,558.58,527.46,545.48,527.48,544.21Zm0,0c.1-7.58-7.86-9.15-12.8-9.21-10.78-.15-32.68-2.54-32,10.21.62,12,7.78,14.08,20.18,13.06a67.12,67.12,0,0,1,7.9-.19C530.18,558.58,527.46,545.48,527.48,544.21Zm0,0c.1-7.58-7.86-9.15-12.8-9.21-10.78-.15-32.68-2.54-32,10.21.62,12,7.78,14.08,20.18,13.06a67.12,67.12,0,0,1,7.9-.19C530.18,558.58,527.46,545.48,527.48,544.21Zm0,0c.1-7.58-7.86-9.15-12.8-9.21-10.78-.15-32.68-2.54-32,10.21.62,12,7.78,14.08,20.18,13.06a67.12,67.12,0,0,1,7.9-.19C530.18,558.58,527.46,545.48,527.48,544.21Zm-103.38,51c-4.75-7.57-14.11-4.89-26.39,4.34-6.08-6.77-12-9.82-17.78-7.9-6.41,2.13-9.38,9.5-6.84,15.76,3.32,8.17,10.19,13.59,19.28,17.31a5.47,5.47,0,0,0,3.54.27c11.22-3,20.39-7,26.12-12.89A13.85,13.85,0,0,0,424.1,595.17Zm-63.39-60.85c.1-7.57-7.86-9.15-12.77-9.21-10.81-.14-32.71-2.54-32.08,10.21.64,12,7.78,14.09,20.19,13.06a69.45,69.45,0,0,1,7.9-.18C363.43,548.69,360.69,535.59,360.71,534.32Z"/><path class="cls-2" d="M424.09,595.17A13.83,13.83,0,0,1,422,612.06c-5.73,5.87-14.9,9.92-26.12,12.89a5.46,5.46,0,0,1-3.54-.27c-9.09-3.72-16-9.14-19.28-17.31-2.54-6.26.43-13.63,6.83-15.76,5.76-1.92,11.71,1.13,17.79,7.9C410,590.28,419.34,587.6,424.09,595.17Z"/><path class="cls-2" d="M527.47,544.21c0,1.27,2.71,14.37-16.76,13.87a67.12,67.12,0,0,0-7.9.19c-12.4,1-19.57-1-20.18-13.06-.63-12.75,21.27-10.36,32-10.21C519.61,535.06,527.58,536.63,527.47,544.21Z"/><path class="cls-2" d="M516.26,469.6A77.77,77.77,0,1,0,594,547.36,77.77,77.77,0,0,0,516.26,469.6Zm-.84,132.75a55.24,55.24,0,1,1,55.24-55.24A55.22,55.22,0,0,1,515.42,602.35Z"/><path class="cls-2" d="M343.94,548.2a69.45,69.45,0,0,0-7.9.18c-12.4,1-19.54-1-20.18-13.06-.63-12.75,21.27-10.35,32.07-10.21,4.92.06,12.88,1.64,12.78,9.21C360.69,535.59,363.43,548.69,343.94,548.2Z"/><path class="cls-3" d="M422,612.06c-5.73,5.87-14.9,9.92-26.12,12.89a5.46,5.46,0,0,1-3.54-.27c-9.09-3.72-16-9.14-19.28-17.31-2.54-6.26.43-13.63,6.83-15.76,5.76-1.92,11.71,1.13,17.79,7.9,12.28-9.23,21.63-11.91,26.38-4.34A13.83,13.83,0,0,1,422,612.06Z"/><path class="cls-3" d="M343.94,548.2a69.45,69.45,0,0,0-7.9.18c-12.4,1-19.54-1-20.18-13.06-.63-12.75,21.27-10.35,32.07-10.21,4.92.06,12.88,1.64,12.78,9.21C360.69,535.59,363.43,548.69,343.94,548.2Z"/><path class="cls-2" d="M510.71,558.08a67.12,67.12,0,0,0-7.9.19c-12.4,1-19.57-1-20.18-13.06-.63-12.75,21.27-10.36,32-10.21,4.93.06,12.9,1.63,12.79,9.21C527.45,545.48,530.18,558.58,510.71,558.08Z"/><path class="cls-3" d="M510.71,558.08a67.12,67.12,0,0,0-7.9.19c-12.4,1-19.57-1-20.18-13.06-.63-12.75,21.27-10.36,32-10.21,4.93.06,12.9,1.63,12.79,9.21C527.45,545.48,530.18,558.58,510.71,558.08Z"/><path class="cls-3" d="M516.26,469.6A77.77,77.77,0,1,0,594,547.36,77.77,77.77,0,0,0,516.26,469.6Zm-.84,132.75a55.24,55.24,0,1,1,55.24-55.24A55.22,55.22,0,0,1,515.42,602.35Z"/></svg>