<svg height="512" viewBox="0 0 57 60" width="512" xmlns="http://www.w3.org/2000/svg"><g id="Page-1" fill="none" fill-rule="evenodd"><g id="028---Image-Filters" fill="rgb(120,120,120)" fill-rule="nonzero"><path id="Shape" d="m54 9c-.0055111-4.96827817-4.0317218-8.99448887-9-9h-36c-4.96827817.00551113-8.99448887 4.03172183-9 9v42c.00551113 4.9682782 4.03172183 8.9944889 9 9h29c6.9403448.0118142 13.3329992-3.7678199 16.6675532-9.8546315 3.334554-6.0868115 3.0785214-13.5088134-.6675532-19.3513685zm-45 49c-3.86416566-.0044086-6.99559136-3.1358343-7-7v-42c.00440864-3.86416566 3.13583434-6.99559136 7-7h36c3.8641657.00440864 6.9955914 3.13583434 7 7v19.2c-.6195631-.6857777-1.2879781-1.325785-2-1.915v-17.285c-.0033061-2.76005315-2.2399468-4.99669388-5-5h-36c-2.76005315.00330612-4.99669388 2.23994685-5 5v28c.00330612 2.7600532 2.23994685 4.9966939 5 5h10.051c.2026871 4.0242535 1.6861859 7.8784072 4.234 11h-4.285c-.5522847 0-1 .4477153-1 1s.4477153 1 1 1h6.2c1.3084245 1.1985671 2.7779791 2.2083389 4.366 3zm10.051-18h-10.051c-1.65685425 0-3-1.3431458-3-3v-1.586l10.5-10.5 2.086 2.086c.7809997.7807639 2.0470003.7807639 2.828 0l15.086-15.086 11.5 11.5v1.461c-5.6963534-3.5573356-12.8505645-3.8320956-18.8029778-.722135-5.9524133 3.1099607-9.812801 9.1395242-10.1460222 15.847135zm28.949-19.414-10.086-10.086c-.7809997-.78076388-2.0470003-.78076388-2.828 0l-15.086 15.086-2.086-2.086c-.791167-.755814-2.036833-.755814-2.828 0l-9.086 9.086v-23.586c0-1.65685425 1.34314575-3 3-3h36c1.6568542 0 3 1.34314575 3 3zm-10 37.414c-9.3888407 0-17-7.6111593-17-17s7.6111593-17 17-17 17 7.6111593 17 17c-.010471 9.3845001-7.6154999 16.989529-17 17z"/><path id="Shape" d="m13 53h-3c-.55228475 0-1 .4477153-1 1s.44771525 1 1 1h3c.5522847 0 1-.4477153 1-1s-.4477153-1-1-1z"/><path id="Shape" d="m14 9c-2.7614237 0-5 2.2385763-5 5s2.2385763 5 5 5 5-2.2385763 5-5c-.0033061-2.7600532-2.2399468-4.99669388-5-5zm0 8c-1.6568542 0-3-1.3431458-3-3s1.3431458-3 3-3 3 1.3431458 3 3-1.3431458 3-3 3z"/><path id="Shape" d="m30 41.142v-9.142c0-.5522847-.4477153-1-1-1s-1 .4477153-1 1v9.142c-1.7642024.4490235-2.9990647 2.0375517-2.9990647 3.858s1.2348623 3.4089765 2.9990647 3.858v1.142c0 .5522847.4477153 1 1 1s1-.4477153 1-1v-1.142c1.7642024-.4490235 2.9990647-2.0375517 2.9990647-3.858s-1.2348623-3.4089765-2.9990647-3.858zm-1 5.858c-1.1045695 0-2-.8954305-2-2s.8954305-2 2-2 2 .8954305 2 2-.8954305 2-2 2z"/><path id="Shape" d="m48 41.142v-9.142c0-.5522847-.4477153-1-1-1s-1 .4477153-1 1v9.142c-1.7642024.4490235-2.9990647 2.0375517-2.9990647 3.858s1.2348623 3.4089765 2.9990647 3.858v1.142c0 .5522847.4477153 1 1 1s1-.4477153 1-1v-1.142c1.7642024-.4490235 2.9990647-2.0375517 2.9990647-3.858s-1.2348623-3.4089765-2.9990647-3.858zm-1 5.858c-1.1045695 0-2-.8954305-2-2s.8954305-2 2-2 2 .8954305 2 2-.8954305 2-2 2z"/><path id="Shape" d="m39 33.142v-1.142c0-.5522847-.4477153-1-1-1s-1 .4477153-1 1v1.142c-1.7642024.4490235-2.9990647 2.0375517-2.9990647 3.858s1.2348623 3.4089765 2.9990647 3.858v9.142c0 .5522847.4477153 1 1 1s1-.4477153 1-1v-9.142c1.7642024-.4490235 2.9990647-2.0375517 2.9990647-3.858s-1.2348623-3.4089765-2.9990647-3.858zm-1 5.858c-1.1045695 0-2-.8954305-2-2s.8954305-2 2-2 2 .8954305 2 2-.8954305 2-2 2z"/></g></g></svg>