<?xml version="1.0"?>
<svg xmlns="http://www.w3.org/2000/svg" height="512px" viewBox="0 0 58 58" width="512px" class="hovered-paths"><g><g id="023---Linked-Stream"><path id="Shape" d="m24 48h-23c-.55228475 0-1 .4477153-1 1v4c0 .5522847.44771525 1 1 1h23z" data-original="#000000" class="hovered-path active-path" data-old_color="#000000" fill="#E7E7E7"/><path id="Shape" d="m57 48h-23v6h23c.5522847 0 1-.4477153 1-1v-4c0-.5522847-.4477153-1-1-1z" data-original="#000000" class="hovered-path active-path" data-old_color="#000000" fill="#E7E7E7"/><path id="Shape" d="m29 58c-1.6568542 0-3-1.3431458-3-3v-8c0-1.6568542 1.3431458-3 3-3s3 1.3431458 3 3v8c0 1.6568542-1.3431458 3-3 3z" data-original="#000000" class="hovered-path active-path" data-old_color="#000000" fill="#E7E7E7"/><path id="Shape" d="m55 0h-52c-1.65685425 0-3 1.34314575-3 3v32c0 1.6568542 1.34314575 3 3 3h52c1.6568542 0 3-1.3431458 3-3v-32c0-1.65685425-1.3431458-3-3-3zm-27 30h-12c-6.07513225 0-11-4.9248678-11-11s4.92486775-11 11-11h3.82c-1.5221586 1.40034945-2.7347615 3.1034434-3.56 5-2.1435936-.0464446-4.1491336 1.0542325-5.2611525 2.8874167-1.11201893 1.8331842-1.16157465 4.1203713-.13 6 1.0315747 1.8796288 2.9875589 3.0661388 5.1311525 3.1125833h12c1.9465984-.0022233 3.7711438-.9486605 4.8941053-2.5386944 1.1229614-1.5900339 1.4047625-3.6260343.7558947-5.4613056h5.17c.5941965 3.2136078-.2713037 6.5250351-2.3619565 9.03691-2.0906529 2.5118749-5.189964 3.9640842-8.4580435 3.96309zm21.78-3.22c-2.0614595 2.0659504-4.8614827 3.2248289-7.78 3.22h-3.82c1.5221586-1.4003495 2.7347615-3.1034434 3.56-5 3.3137085.071797 6.058203-2.5562915 6.13-5.87s-2.5562915-6.058203-5.87-6.13c-12.937 0-12.315-.038-13 .09-1.7460841.2930868-3.2728996 1.3439841-4.1701628 2.8702962-.8972631 1.5263121-1.0729452 3.3714914-.4798372 5.0397038h-5.17c-.5941965-3.2136078.2713037-6.5250351 2.3619565-9.03691 2.0906529-2.51187494 5.189964-3.96408417 8.4580435-3.96309h12c4.4421905.01501318 8.4407803 2.6964293 10.1409422 6.8004191 1.7001619 4.1039897.7692386 8.8275577-2.3609422 11.9795809z" data-original="#000000" class="hovered-path active-path" data-old_color="#000000" fill="#E7E7E7"/></g></g> </svg>
