<?xml version="1.0"?>
<svg xmlns="http://www.w3.org/2000/svg" viewBox="0 0 512 512" width="512px" height="512px"><g><g id="Streaming-2" data-name="Streaming"><path d="M496,392H456V192a40.045,40.045,0,0,0-40-40H96a40.045,40.045,0,0,0-40,40V392H16a8,8,0,0,0-8,8v32a40.045,40.045,0,0,0,40,40H464a40.045,40.045,0,0,0,40-40V400A8,8,0,0,0,496,392ZM72,192a24.027,24.027,0,0,1,24-24H416a24.027,24.027,0,0,1,24,24V392H72ZM292.456,408l-3,8h-67.69l-2.666-8ZM488,432a24.027,24.027,0,0,1-24,24H48a24.027,24.027,0,0,1-24-24V408H202.234l6.177,18.53A8,8,0,0,0,216,432h79a8,8,0,0,0,7.491-5.191L309.544,408H488Z" data-original="#000000" class="active-path" data-old_color="#000000" fill="#FFFFFF"/><path d="M432,376V184a8,8,0,0,0-8-8H88a8,8,0,0,0-8,8V376a8,8,0,0,0,8,8H424A8,8,0,0,0,432,376Zm-16-8H96V192H416Z" data-original="#000000" class="active-path" data-old_color="#000000" fill="#FFFFFF"/><path d="M120,416H40a8,8,0,0,0,0,16h80a8,8,0,0,0,0-16Z" data-original="#000000" class="active-path" data-old_color="#000000" fill="#FFFFFF"/><path d="M152,416h-8a8,8,0,0,0,0,16h8a8,8,0,0,0,0-16Z" data-original="#000000" class="active-path" data-old_color="#000000" fill="#FFFFFF"/><path d="M232,120a24,24,0,1,0,24-24A24.027,24.027,0,0,0,232,120Zm32,0a8,8,0,1,1-8-8A8.009,8.009,0,0,1,264,120Z" data-original="#000000" class="active-path" data-old_color="#000000" fill="#FFFFFF"/><path d="M295.191,96a8,8,0,0,0,5.6-13.714,64,64,0,0,0-89.582,0,8,8,0,1,0,11.2,11.428,48,48,0,0,1,67.186,0A7.971,7.971,0,0,0,295.191,96Z" data-original="#000000" class="active-path" data-old_color="#000000" fill="#FFFFFF"/><path d="M201.093,69.817a80,80,0,0,1,109.814,0,8,8,0,0,0,10.984-11.634,96,96,0,0,0-131.782,0,8,8,0,0,0,10.984,11.634Z" data-original="#000000" class="active-path" data-old_color="#000000" fill="#FFFFFF"/><path d="M236.1,310.983a8,8,0,0,0,8.095-.17l39-24a8,8,0,0,0,0-13.626l-39-24A8,8,0,0,0,232,256v48A8,8,0,0,0,236.1,310.983ZM248,270.316,263.736,280,248,289.684Z" data-original="#000000" class="active-path" data-old_color="#000000" fill="#FFFFFF"/><path d="M256,344a64,64,0,1,0-64-64A64.072,64.072,0,0,0,256,344Zm0-112a48,48,0,1,1-48,48A48.055,48.055,0,0,1,256,232Z" data-original="#000000" class="active-path" data-old_color="#000000" fill="#FFFFFF"/></g></g> </svg>
