<?xml version="1.0"?>
<svg xmlns="http://www.w3.org/2000/svg" height="512px" viewBox="0 0 64 64" width="512px"><g><path d="m42 56h8v4h-8z" data-original="#000000" class="active-path" data-old_color="#000000" fill="#FFFFFF"/><path d="m16 24.153 11.083 1.847h10.917v-21.719l-22 5.5z" data-original="#000000" class="active-path" data-old_color="#000000" fill="#FFFFFF"/><path d="m32 56h8v4h-8z" data-original="#000000" class="active-path" data-old_color="#000000" fill="#FFFFFF"/><path d="m32 28h8v4h-8z" data-original="#000000" class="active-path" data-old_color="#000000" fill="#FFFFFF"/><path d="m52 56h8v4h-8z" data-original="#000000" class="active-path" data-old_color="#000000" fill="#FFFFFF"/><path d="m41 38a6 6 0 1 0 6 6 6.006 6.006 0 0 0 -6-6zm5 6a1 1 0 0 1 -.553.9l-6 3a1 1 0 0 1 -1.447-.9v-6a1 1 0 0 1 1.447-.9l6 3a1 1 0 0 1 .553.9z" data-original="#000000" class="active-path" data-old_color="#000000" fill="#FFFFFF"/><path d="m60 34h-38v20h38zm-19 18a8 8 0 1 1 8-8 8.009 8.009 0 0 1 -8 8z" data-original="#000000" class="active-path" data-old_color="#000000" fill="#FFFFFF"/><path d="m40 42.618v2.764l2.764-1.382z" data-original="#000000" class="active-path" data-old_color="#000000" fill="#FFFFFF"/><path d="m22 28h8v4h-8z" data-original="#000000" class="active-path" data-old_color="#000000" fill="#FFFFFF"/><path d="m4 21a3 3 0 0 0 3 3h7v-14h-7a3 3 0 0 0 -3 3zm3-9h4v2h-4zm0 4h4v2h-4zm0 4h4v2h-4z" data-original="#000000" class="active-path" data-old_color="#000000" fill="#FFFFFF"/><path d="m22 56h8v4h-8z" data-original="#000000" class="active-path" data-old_color="#000000" fill="#FFFFFF"/><path d="m41 10h-1v12h1a5.006 5.006 0 0 0 5-5v-2a5.006 5.006 0 0 0 -5-5z" data-original="#000000" class="active-path" data-old_color="#000000" fill="#FFFFFF"/><path d="m9 46h4a1 1 0 0 0 1-1v-19h-6v19a1 1 0 0 0 1 1z" data-original="#000000" class="active-path" data-old_color="#000000" fill="#FFFFFF"/><path d="m42 28h8v4h-8z" data-original="#000000" class="active-path" data-old_color="#000000" fill="#FFFFFF"/><path d="m52 28h8v4h-8z" data-original="#000000" class="active-path" data-old_color="#000000" fill="#FFFFFF"/></g> </svg>
